{
  "accessors": [
    {
      "bufferView": 2,
      "componentType": 5126,
      "count": 3722,
      "max": [
        553.5709838867188,
        -216.1479949951172,
        9.134849548339844
      ],
      "min": [
        533.281982421875,
        -223.37100219726563,
        0.6185169816017151
      ],
      "type": "VEC3"
    },
    {
      "bufferView": 2,
      "byteOffset": 44664,
      "componentType": 5126,
      "count": 3722,
      "max": [
        0.9999690055847168,
        0.9999380111694336,
        0.9999690055847168
      ],
      "min": [
        -0.9999690055847168,
        -1.0,
        -0.9999380111694336
      ],
      "type": "VEC3"
    },
    {
      "bufferView": 1,
      "componentType": 5126,
      "count": 3722,
      "max": [
        1.9951200485229492,
        0.9970700144767761
      ],
      "min": [
        0.0030479999259114265,
        0.0063210101798176765
      ],
      "type": "VEC2"
    },
    {
      "bufferView": 0,
      "componentType": 5125,
      "count": 14640,
      "type": "SCALAR"
    }
  ],
  "asset": {
    "extras": {
      "author": "Blawgalio (https://sketchfab.com/Blawgalio)",
      "license": "CC-BY-4.0 (http://creativecommons.org/licenses/by/4.0/)",
      "source": "https://sketchfab.com/3d-models/quad-launcher-7b612b45a1a94233a366eb184369aa7e",
      "title": "Quad Launcher"
    },
    "generator": "Sketchfab-16.54.0",
    "version": "2.0"
  },
  "bufferViews": [
    {
      "buffer": 0,
      "byteLength": 58560,
      "name": "floatBufferViews",
      "target": 34963
    },
    {
      "buffer": 0,
      "byteLength": 29776,
      "byteOffset": 58560,
      "byteStride": 8,
      "name": "floatBufferViews",
      "target": 34962
    },
    {
      "buffer": 0,
      "byteLength": 89328,
      "byteOffset": 88336,
      "byteStride": 12,
      "name": "floatBufferViews",
      "target": 34962
    }
  ],
  "buffers": [
    {
      "byteLength": 177664,
      "uri": "scene.bin"
    }
  ],
  "extensionsUsed": [
    "KHR_materials_specular"
  ],
  "images": [
    {
      "uri": "textures/Object3421Mtl_baseColor.png"
    }
  ],
  "materials": [
    {
      "doubleSided": true,
      "extensions": {
        "KHR_materials_specular": {
          "specularColorFactor": [
            1.0,
            1.0,
            1.0
          ],
          "specularFactor": 0.0
        }
      },
      "name": "Object3421Mtl",
      "pbrMetallicRoughness": {
        "baseColorTexture": {
          "index": 0
        },
        "metallicFactor": 0.0
      }
    }
  ],
  "meshes": [
    {
      "name": "Object_0",
      "primitives": [
        {
          "attributes": {
            "NORMAL": 1,
            "POSITION": 0,
            "TEXCOORD_0": 2
          },
          "indices": 3,
          "material": 0,
          "mode": 4
        }
      ]
    }
  ],
  "nodes": [
    {
      "children": [
        1
      ],
      "matrix": [
        1.0,
        0.0,
        0.0,
        0.0,
        0.0,
        2.220446049250313e-16,
        -1.0,
        0.0,
        0.0,
        1.0,
        2.220446049250313e-16,
        0.0,
        0.0,
        0.0,
        0.0,
        1.0
      ],
      "name": "Sketchfab_model"
    },
    {
      "children": [
        2
      ],
      "name": "FARTNIET.obj.cleaner.materialmerger.gles"
    },
    {
      "mesh": 0,
      "name": "Object_2"
    }
  ],
  "samplers": [
    {
      "magFilter": 9729,
      "minFilter": 9987,
      "wrapS": 10497,
      "wrapT": 10497
    }
  ],
  "scene": 0,
  "scenes": [
    {
      "name": "Sketchfab_Scene",
      "nodes": [
        0
      ]
    }
  ],
  "textures": [
    {
      "sampler": 0,
      "source": 0
    }
  ]
}
